<svg xmlns="http://www.w3.org/2000/svg" xmlns:xlink="http://www.w3.org/1999/xlink" viewBox="0 0 1177.54 563.17"><defs><style>.cls-1{fill:none;}.cls-2{font-size:250px;fill:#febf10;font-family:Akka;letter-spacing:0.1em;}.cls-3{clip-path:url(#clip-path);}.cls-4{fill:#c0dbf2;}.cls-5{fill:#045099;}</style><clipPath id="clip-path" transform="translate(-160.36 -133.18)"><rect class="cls-1" x="31.87" y="80.18" width="473.6" height="439.63"/></clipPath></defs><g id="_YOUR_TEXT_HERE_" data-name="[YOUR TEXT HERE]"><text class="cls-2" transform="translate(306.86 265.23) scale(1.08 1)">Tipsy</text><g class="cls-3"><g class="cls-3"><path class="cls-4" d="M280.72,133.18c-66.47,0-120.36,48.62-120.36,108.59a99.24,99.24,0,0,0,9.23,41.77h0a103.05,103.05,0,0,0,6.46,11.86L280.72,487.72,385.39,295.4a100,100,0,0,0,15.7-53.63c0-60-53.89-108.59-120.37-108.59M227,341.3s48.74,31.26,108.67,0c0,0-54,38.66-108.67,0m53.75-6.17c-56,0-101.53-41.51-101.53-92.54s45.55-92.54,101.53-92.54,101.53,41.51,101.53,92.54-45.54,92.54-101.53,92.54" transform="translate(-160.36 -133.18)"/><path class="cls-5" d="M280.72,162.39c-48.38,0-87.75,36-87.75,80.2s39.37,80.2,87.75,80.2,87.75-36,87.75-80.2-39.36-80.2-87.75-80.2m19.41,35.21c2.15-3.31,6.64-4.8,10.74-3.83l5-7.73a2.38,2.38,0,0,1,2.94-.73,1.71,1.71,0,0,1,.85,2.51l-5,7.74a7.17,7.17,0,0,1,1.91,9.78c-2.15,3.31-6.64,4.81-10.74,3.83l-14.56,22.45a29.8,29.8,0,0,0,5.32-1.34l4.34-.61-19.51,20.92-24.56-20.92s11.2-3.39,20.23.61a22.31,22.31,0,0,0,8.94,1.78l16-24.67c-.46-.4-5.79-3.81-1.91-9.79m7.46,106.22c6.86,1.56,0,2.67,0,2.67H256.3c-6.86,0,0-2.22,0-2.22l20.79-4.89V259.76l-45.16-42.51h59.95l-3.46,5.33H245.68l34.82,32.77,33.27-32.77H300l3.46-5.33h23.66l-42.78,42.14v39.77c6,1.15,18.2,3.51,23.28,4.66" transform="translate(-160.36 -133.18)"/></g></g></g></svg>