<svg xmlns="http://www.w3.org/2000/svg" xmlns:xlink="http://www.w3.org/1999/xlink" viewBox="0 0 1245.2 596.9"><defs><style>.cls-1{fill:none;}.cls-2{font-size:286.68px;fill:#febf10;font-family:Akka;letter-spacing:0.1em;}.cls-3{clip-path:url(#clip-path);}.cls-4{fill:#045099;}.cls-5{fill:#951c54;}</style><clipPath id="clip-path" transform="translate(-156.77 -149.21)"><rect class="cls-1" x="79.57" y="136.48" width="284.55" height="284.55"/></clipPath></defs><g id="_YOUR_TEXT_HERE_" data-name="[YOUR TEXT HERE]"><text class="cls-2" transform="translate(246.79 255.25) scale(1.08 1)">Tipsy</text><g class="cls-3"><g class="cls-3"><path class="cls-4" d="M229.08,170.78c-39.94,0-72.31,31.46-72.31,70.28a68.27,68.27,0,0,0,5.55,27h0a68,68,0,0,0,3.88,7.67l62.88,124.48L292,275.77a68.42,68.42,0,0,0,9.43-34.71c0-38.82-32.38-70.28-72.32-70.28m-32.29,134.7s29.28,20.23,65.29,0c0,0-32.44,25-65.29,0m32.29-4c-33.63,0-61-26.87-61-59.9s27.37-59.9,61-59.9,61,26.87,61,59.9-27.36,59.9-61,59.9" transform="translate(-156.77 -149.21)"/><path class="cls-5" d="M229.08,189.68c-29.07,0-52.72,23.29-52.72,51.91S200,293.5,229.08,293.5s52.72-23.29,52.72-51.91-23.65-51.91-52.72-51.91m11.67,22.79A5.86,5.86,0,0,1,247.2,210l3-5a1.37,1.37,0,0,1,1.77-.47,1.14,1.14,0,0,1,.51,1.62l-3,5a4.88,4.88,0,0,1,1.14,6.33,5.84,5.84,0,0,1-6.45,2.48l-8.75,14.53a17.19,17.19,0,0,0,3.2-.87l2.6-.39L229.5,246.77l-14.75-13.54s6.72-2.2,12.15.39a12.6,12.6,0,0,0,5.37,1.15q4.81-8,9.62-16a4.5,4.5,0,0,1-1.14-6.34m4.48,68.75c4.12,1,0,1.73,0,1.73H214.41c-4.12,0,0-1.44,0-1.44l12.49-3.16V252.7l-27.13-27.51h36l-2.08,3.45H208L229,249.85l20-21.21h-8.29l2.08-3.45h14.21l-25.7,27.28V278.2c3.6.75,10.93,2.28,14,3" transform="translate(-156.77 -149.21)"/></g></g></g></svg>