<svg id="Layer_1" data-name="Layer 1" xmlns="http://www.w3.org/2000/svg" xmlns:xlink="http://www.w3.org/1999/xlink" viewBox="0 0 160.76 35.96"><defs><style>.cls-1{fill:none;}.cls-2{font-size:33px;fill:#ffbf00;font-family:Akka;letter-spacing:0.1em;}.cls-3{fill:#fff;}.cls-4{clip-path:url(#clip-path);}.cls-5{fill:#bfdbf7;}.cls-6{fill:#004e9a;}</style><clipPath id="clip-path" transform="translate(-33.01 -0.05)"><rect class="cls-1" x="24.31" y="0.47" width="32.06" height="32.06"/></clipPath></defs><text class="cls-2" transform="translate(45.92 29.38)">Tipsy</text><path class="cls-3" d="M17.16,9.48" transform="translate(-33.01 -0.05)"/><g class="cls-4"><g class="cls-4"><path class="cls-5" d="M41.16,4.33A8,8,0,0,0,33,12.25a7.6,7.6,0,0,0,.63,3.05h0a6.27,6.27,0,0,0,.43.86l7.09,14,7.09-14a7.73,7.73,0,0,0,1.06-3.91,8,8,0,0,0-8.15-7.92M37.52,19.51a7.16,7.16,0,0,0,7.36,0,6.18,6.18,0,0,1-7.36,0m3.64-.45a6.82,6.82,0,0,1-6.87-6.75,6.87,6.87,0,0,1,13.74,0,6.82,6.82,0,0,1-6.87,6.75" transform="translate(-33.01 -0.05)"/><path class="cls-6" d="M41.16,6.46a5.85,5.85,0,1,0,5.94,5.85,5.9,5.9,0,0,0-5.94-5.85M42.47,9a.67.67,0,0,1,.73-.28l.34-.56a.15.15,0,0,1,.2,0,.12.12,0,0,1,.06.18l-.34.56a.57.57,0,0,1,.13.72.67.67,0,0,1-.73.28l-1,1.63a2.52,2.52,0,0,0,.36-.09l.3-.05L41.21,12.9l-1.67-1.53a2.06,2.06,0,0,1,1.37.05,1.51,1.51,0,0,0,.61.12L42.6,9.75A.52.52,0,0,1,42.47,9M43,16.78c.46.11,0,.19,0,.19H39.51c-.47,0,0-.16,0-.16l1.4-.36V13.57l-3-3.11h4l-.23.39H38.79l2.35,2.39,2.26-2.39h-.94l.24-.39h1.6l-2.9,3.08v2.9c.41.08,1.23.25,1.58.34" transform="translate(-33.01 -0.05)"/></g></g></svg>